<svg xmlns="http://www.w3.org/2000/svg" viewBox="0 0 523.2 113.4"><path d="M282.9 63.5L222.5 7.2v95.5h17.9V49.4l60.4 56.2V9.9h-17.9zM144.1 6.3C116.5 6.3 94 28.8 94 56.4s22.5 50.1 50.1 50.1 50.1-22.5 50.1-50.1-22.5-50.1-50.1-50.1zm0 82.2c-17.5 0-31.8-14.4-31.8-32.1 0-17.7 14.2-32.1 31.8-32.1 17.5 0 31.8 14.4 31.8 32.1 0 17.7-14.3 32.1-31.8 32.1zM63.5 57.2c-4.8-3.6-11-6.6-20.3-9.5C25.1 42 25.1 37.4 25.1 35.2c0-5.2 5.8-10.5 15.4-10.5 8.1 0 14.4 4.1 16.8 5.8l1.3.9L73 21.7l-1.6-1.9c-.6-.5-11.6-13.5-30.9-13.5-9.3 0-17.8 3-24 8.4-6.2 5.3-9.8 12.8-9.8 20.5 0 8.2 3.6 15.1 10.7 20.5 4.8 3.6 11 6.6 20.3 9.5C55.8 71 55.8 75.6 55.8 77.8c0 5.2-5.8 10.5-15.4 10.5-8.1 0-14.4-4.1-16.8-5.8l-1.3-.9L8 91.3l1.6 1.9c.5.5 11.6 13.5 30.9 13.5 9.3 0 17.8-3 24-8.4 6.2-5.4 9.7-12.8 9.7-20.5 0-8.3-3.6-15.2-10.7-20.6zM379.2 6.7c-27.6 0-50.1 22.5-50.1 50.1s22.5 50.1 50.1 50.1 50.1-22.5 50.1-50.1-22.4-50.1-50.1-50.1zm0 82.2c-17.5 0-31.8-14.4-31.8-32.1 0-17.7 14.2-32.1 31.8-32.1 17.5 0 31.8 14.4 31.8 32.1 0 17.7-14.3 32.1-31.8 32.1zM459.8 55.9c4.8 3.6 11 6.6 20.3 9.5 18.1 5.8 18.1 10.3 18.1 12.5 0 5.2-5.8 10.5-15.4 10.5-8.1 0-14.4-4.1-16.8-5.8l-1.3-.9-14.4 9.7 1.6 1.9c.5.5 11.6 13.5 30.9 13.5 9.3 0 17.8-3 24-8.4 6.2-5.4 9.7-12.8 9.7-20.5 0-8.2-3.6-15.1-10.7-20.5-4.8-3.6-11-6.6-20.3-9.5-18.1-5.8-18.1-10.3-18.1-12.5 0-5.2 5.8-10.5 15.4-10.5 8.1 0 14.4 4.1 16.8 5.8l1.3.9 14.4-9.7-1.6-1.9c-.5-.5-11.6-13.5-30.9-13.5-9.3 0-17.8 3-24 8.4-6.2 5.4-9.7 12.8-9.7 20.5 0 8.2 3.6 15.1 10.7 20.5z"/></svg>